<?xml version="1.0" standalone="no"?>
<!DOCTYPE svg PUBLIC "-//W3C//DTD SVG 20010904//EN"
 "http://www.w3.org/TR/2001/REC-SVG-20010904/DTD/svg10.dtd">
<svg version="1.0" xmlns="http://www.w3.org/2000/svg"
 width="2000.000000pt" height="2000.000000pt" viewBox="0 0 2000.000000 2000.000000"
 preserveAspectRatio="xMidYMid meet">

<g transform="translate(0.000000,2000.000000) scale(0.100000,-0.100000)"
fill="#000000" stroke="none">
<path d="M10985 18154 c-22 -2 -105 -9 -185 -14 -661 -49 -1395 -240 -1998
-519 l-133 -62 -97 41 c-284 123 -612 140 -910 48 -398 -122 -743 -470 -857
-864 -47 -161 -58 -253 -52 -434 l5 -165 -207 -210 c-276 -280 -453 -470 -780
-835 -151 -168 -352 -392 -448 -497 l-174 -193 -300 -2 -300 -3 -191 -446
-191 -446 -168 -112 c-1138 -759 -1811 -1384 -2312 -2146 -462 -704 -722
-1500 -778 -2385 -15 -234 -6 -757 16 -980 164 -1654 776 -3057 1823 -4177
937 -1002 2183 -1684 3622 -1982 1188 -246 2502 -250 3585 -10 837 185 1600
513 2360 1014 214 142 338 231 645 465 135 102 290 218 345 256 533 374 996
544 1521 561 202 6 317 -3 482 -37 517 -108 903 -449 1018 -901 15 -57 28
-106 30 -108 2 -2 49 30 106 70 325 232 659 572 911 927 529 745 907 1735
1167 3057 113 578 184 1122 231 1795 17 241 23 1166 10 1463 -87 1974 -584
3696 -1431 4962 -775 1157 -2179 2120 -3747 2569 -488 140 -1017 235 -1575
282 -170 15 -940 28 -1043 18z m-1088 -469 c35 -23 49 -82 29 -128 -34 -83
-150 -85 -190 -3 -17 36 -18 43 -5 80 24 69 101 93 166 51z m-1606 -41 c406
-77 771 -370 927 -747 58 -138 57 -139 -48 -59 -148 113 -335 196 -533 239
-115 25 -389 25 -505 0 -146 -32 -300 -90 -407 -154 -416 -250 -664 -707 -642
-1184 4 -69 9 -133 13 -142 13 -35 -13 -14 -57 46 -101 137 -178 301 -220 467
-30 121 -37 370 -15 500 97 558 551 986 1114 1050 95 11 272 3 373 -16z m4770
-403 c22 -23 29 -39 29 -68 -1 -84 -85 -121 -149 -67 -25 21 -31 33 -31 66 0
51 43 98 90 98 22 0 41 -9 61 -29z m-4428 -207 c212 -40 449 -159 599 -302 53
-51 57 -57 69 -125 19 -106 17 -344 -5 -445 -25 -117 -100 -332 -116 -332 -3
1 -53 88 -112 195 -94 171 -106 198 -98 221 17 44 11 139 -11 201 -30 81 -107
209 -148 245 -33 29 -58 33 -101 14 -12 -5 -29 18 -70 91 -39 70 -78 122 -137
182 l-82 83 67 -7 c37 -4 102 -13 145 -21z m-358 -221 c91 -29 149 -65 220
-137 65 -66 88 -105 329 -540 297 -537 277 -464 162 -591 -214 -237 -551 -398
-853 -408 l-78 -2 -218 390 c-289 518 -315 571 -326 663 -20 162 34 325 145
436 58 58 210 152 294 181 104 37 225 40 325 8z m-956 -683 c18 -36 44 -84 58
-107 l24 -42 -24 -16 c-60 -39 -57 -89 15 -225 78 -147 145 -213 243 -239 37
-10 43 -17 92 -108 29 -54 71 -131 94 -171 l41 -73 -38 7 c-209 37 -462 163
-616 306 l-58 53 -15 106 c-32 225 -10 412 77 637 l31 83 22 -73 c11 -40 36
-102 54 -138z m2376 39 c117 -14 127 -20 81 -48 -57 -36 -150 -145 -190 -223
-59 -117 -79 -219 -74 -362 4 -94 11 -139 31 -201 66 -199 214 -360 392 -427
50 -18 81 -22 185 -22 112 0 132 2 192 26 37 15 84 38 105 52 20 14 39 24 41
22 9 -10 -32 -67 -58 -81 -17 -9 -60 -45 -98 -82 -79 -78 -133 -114 -264 -177
-75 -35 -101 -53 -114 -77 -41 -80 30 -186 141 -209 103 -21 258 12 333 71
l26 20 13 -68 c15 -80 67 -190 104 -216 14 -10 47 -21 74 -25 l49 -7 -70 -63
c-247 -225 -545 -393 -978 -552 -544 -199 -934 -227 -1143 -84 -108 74 -349
356 -585 684 -42 58 -111 141 -155 185 -209 215 -341 528 -318 760 7 76 24
153 34 160 4 2 27 -12 51 -31 173 -137 393 -224 615 -243 664 -57 1235 448
1260 1114 l4 100 48 6 c82 10 174 9 268 -2z m465 1 c-8 -5 -24 -10 -34 -10
-11 0 -49 -7 -85 -16 -209 -52 -319 -159 -368 -359 -23 -96 -23 -288 0 -375
54 -205 190 -338 384 -376 80 -16 256 -14 350 5 50 10 48 2 -14 -40 -75 -52
-165 -79 -263 -79 -164 1 -263 43 -386 165 -132 131 -194 285 -194 480 0 183
55 327 171 449 74 79 150 126 240 150 62 17 223 22 199 6z m540 -30 c196 -10
458 -34 490 -46 9 -4 -8 -13 -40 -23 -180 -57 -356 -209 -447 -389 -34 -68
-38 -83 -40 -161 -1 -47 -5 -122 -9 -166 -6 -69 -11 -85 -37 -114 -16 -19 -45
-58 -63 -87 -31 -48 -38 -53 -86 -63 -410 -84 -655 12 -743 292 -65 205 -29
464 82 587 109 122 263 164 653 178 19 1 127 -3 240 -8z m3878 -4 c31 -16 74
-61 91 -93 15 -30 14 -117 -3 -156 -57 -137 -270 -139 -335 -5 -62 129 24 267
167 268 29 0 65 -6 80 -14z m-5248 -142 c-46 -428 -324 -788 -724 -939 -257
-97 -566 -90 -821 18 -65 28 -175 85 -175 92 0 2 28 -6 62 -16 232 -73 568
-70 795 6 182 61 364 176 509 320 155 154 267 341 331 553 15 51 29 88 31 82
2 -6 -1 -58 -8 -116z m2160 49 c77 -21 196 -85 250 -134 25 -22 36 -37 25 -33
-157 57 -239 73 -378 74 -283 1 -496 -114 -651 -350 -41 -63 -46 -50 -12 32
30 73 99 169 167 233 183 173 394 235 599 178z m4573 -143 c56 -44 40 -138
-27 -160 -69 -23 -137 38 -121 108 14 66 95 94 148 52z m-4438 -19 c265 -70
395 -223 395 -467 0 -129 -42 -239 -127 -329 -35 -38 -114 -105 -124 -105 -3
0 -10 28 -13 61 -15 134 -86 243 -189 293 -114 56 -194 69 -412 70 -215 1
-288 -10 -404 -60 -29 -13 -55 -24 -57 -24 -11 0 -2 76 16 134 41 131 188 305
317 374 51 27 154 60 233 76 62 12 287 -2 365 -23z m-350 -511 c235 -27 353
-89 414 -219 22 -48 26 -70 26 -151 0 -126 -21 -192 -81 -259 -25 -28 -50 -51
-55 -51 -5 0 -9 20 -9 45 0 24 -7 63 -17 86 -13 34 -25 45 -67 64 -28 12 -74
28 -103 35 -42 11 -54 19 -64 42 -14 35 -71 86 -105 94 -14 4 -53 4 -85 0 -52
-5 -64 -3 -90 17 -41 29 -166 31 -218 3 -28 -15 -54 -18 -131 -17 -53 1 -108
-3 -123 -8 -15 -6 -27 -8 -27 -4 0 14 80 140 113 179 99 114 356 174 622 144z
m-3874 -106 c6 -7 4 -33 -6 -69 -61 -234 13 -531 195 -782 32 -46 57 -83 54
-83 -4 0 -38 17 -76 37 -209 110 -363 383 -344 609 8 91 38 199 77 275 l30 60
30 -18 c17 -10 35 -23 40 -29z m3607 -220 c28 -19 28 -39 1 -241 -17 -118 -22
-213 -23 -376 l-1 -219 -28 -24 c-22 -19 -39 -24 -82 -24 -47 0 -56 3 -74 28
-54 76 -101 257 -101 387 0 128 66 402 107 445 35 38 160 53 201 24z m-3823
-112 c1 -153 47 -281 151 -418 79 -105 191 -187 309 -229 88 -30 107 -45 161
-121 l47 -66 -24 -20 c-97 -77 -196 -128 -287 -147 -76 -16 -206 -13 -283 7
-224 59 -403 306 -387 534 6 82 55 190 155 342 56 87 150 216 156 216 1 0 2
-44 2 -98z m3564 82 c2 -2 -8 -43 -24 -91 -73 -230 -82 -401 -31 -576 43 -144
35 -167 -60 -167 -42 0 -51 4 -83 38 -69 73 -96 216 -88 466 8 250 35 313 147
337 33 7 130 3 139 -7z m481 -9 c46 -24 74 -87 72 -163 -2 -58 -27 -263 -53
-427 -20 -121 -63 -180 -131 -173 -52 5 -74 56 -86 202 -9 104 -7 147 14 330
13 116 24 215 24 219 0 27 115 35 160 12z m220 -149 c68 -26 80 -48 80 -147 0
-130 -52 -290 -105 -325 -34 -22 -77 -4 -107 44 l-21 35 17 126 c9 69 19 160
22 201 3 41 8 81 10 88 4 15 18 12 104 -22z m-1015 7 c-4 -10 -9 -97 -12 -194
l-6 -176 -47 -32 c-61 -42 -119 -61 -200 -68 -120 -10 -201 32 -216 112 -6 35
-4 41 24 65 18 14 58 37 89 50 96 38 174 90 266 177 85 81 116 101 102 66z
m-3603 -383 c-6 -94 12 -179 60 -280 74 -154 209 -263 378 -306 96 -24 262
-15 355 19 38 14 71 25 72 23 7 -7 -71 -59 -130 -86 -155 -73 -354 -62 -506
27 -98 57 -199 178 -249 300 -32 76 -47 189 -33 254 10 43 45 119 55 119 2 0
1 -31 -2 -70z m-700 -2537 l3 -2468 408 -3 407 -2 0 -520 0 -520 -410 0 -410
0 0 -980 0 -980 -620 0 -620 0 0 980 0 980 -1190 0 -1190 0 0 574 0 574 214
499 c117 274 445 1040 729 1703 450 1051 1045 2441 1106 2583 l20 47 776 0
775 0 2 -2467z m10233 0 l0 -2468 408 -3 407 -2 0 -520 0 -520 -407 -2 -408
-3 -3 -978 -2 -977 -618 2 -617 3 -2 975 -3 975 -1189 3 -1190 2 6 578 5 577
144 337 c79 185 144 340 144 343 0 10 132 319 142 332 7 8 17 7 39 -4 41 -20
182 -28 248 -14 207 44 387 247 437 491 34 169 -4 391 -119 690 l-52 135 488
1140 c268 627 510 1193 539 1258 l51 117 776 0 776 0 0 -2467z m-5043 2422
c16 -14 35 -25 43 -25 34 0 204 -300 264 -466 31 -85 74 -254 64 -254 -2 0
-30 17 -61 39 -273 184 -615 202 -899 45 -223 -123 -399 -355 -470 -619 -24
-89 -27 -118 -26 -265 0 -142 3 -176 22 -245 39 -135 43 -121 -41 -140 -193
-44 -504 -14 -850 81 -322 88 -669 234 -750 314 -42 42 -79 201 -94 405 l-7
99 40 -32 c56 -44 134 -79 222 -98 58 -13 106 -15 230 -11 209 7 371 41 651
135 404 137 688 277 939 464 113 85 401 369 420 416 7 17 15 32 18 32 2 0 13
-9 25 -20 35 -33 99 -27 144 12 39 35 73 98 74 136 0 28 5 28 42 -3z m-4558
-169 c48 -156 164 -296 302 -368 97 -50 154 -63 271 -63 57 0 102 -3 100 -6
-1 -3 -83 -83 -182 -177 l-180 -171 -80 0 c-239 -1 -413 120 -441 306 -3 24
-10 43 -15 43 -17 0 -9 26 67 210 41 102 87 213 101 248 14 34 26 62 28 62 1
0 14 -38 29 -84z m4020 -51 c17 -17 36 -25 61 -25 19 0 35 -4 35 -8 0 -18
-222 -224 -319 -296 -224 -166 -446 -281 -778 -402 -403 -147 -714 -209 -918
-184 -104 13 -193 41 -244 77 l-36 25 30 -6 c239 -47 482 -17 876 110 509 164
883 370 1174 647 50 47 91 86 92 87 1 0 13 -11 27 -25z m2601 -97 c39 -35 44
-86 11 -125 -15 -17 -40 -34 -56 -38 -33 -7 -84 15 -100 44 -48 90 68 185 145
119z m-2030 -303 c86 -23 230 -97 302 -155 111 -89 214 -230 269 -369 40 -102
35 -107 -13 -16 -65 122 -106 179 -179 251 -212 210 -580 218 -917 22 -200
-117 -379 -332 -442 -531 -30 -94 -54 -237 -57 -335 -3 -88 -12 -74 -34 49
-21 119 -14 290 16 404 97 364 357 623 701 695 64 13 283 4 354 -15z m-3151
-102 c42 -51 119 -132 170 -180 l94 -88 6 -90 c11 -141 35 -293 57 -370 14
-47 22 -102 23 -170 1 -61 7 -112 16 -130 11 -24 13 -79 11 -260 -2 -126 2
-270 8 -320 51 -412 180 -724 385 -929 l76 -76 0 -1232 c0 -1258 2 -1348 40
-1568 28 -162 54 -250 109 -365 132 -276 288 -378 576 -378 203 1 317 43 430
157 80 82 144 188 186 309 33 97 50 172 81 367 22 144 22 155 28 1454 l5 1309
30 10 c17 5 66 22 109 38 121 45 116 58 126 -292 5 -167 13 -304 21 -333 36
-143 237 -210 392 -132 162 82 291 243 327 407 l13 56 42 -8 c48 -9 148 -17
218 -18 l47 -1 0 -1167 c0 -701 -4 -1216 -10 -1288 -46 -538 -220 -1016 -490
-1345 -116 -141 -300 -299 -457 -394 -208 -125 -485 -213 -783 -248 -170 -21
-547 -15 -715 11 -346 52 -613 158 -851 336 -480 360 -750 929 -804 1695 -12
179 -13 3079 0 3700 9 454 16 538 66 792 42 216 98 390 185 575 53 115 140
265 149 261 4 -2 42 -44 84 -95z m-1684 44 c0 -35 54 -139 94 -179 81 -83 194
-127 345 -135 l104 -6 -6 -156 c-5 -160 -14 -202 -63 -305 -18 -37 -20 -38
-62 -32 -24 3 -58 13 -75 21 -34 16 -69 67 -61 88 9 24 -14 67 -36 67 -11 0
-68 -37 -126 -81 -105 -80 -108 -81 -152 -75 -67 9 -127 48 -159 104 -15 26
-31 50 -37 54 -17 12 61 264 167 535 48 123 67 151 67 100z m4944 -127 c92
-23 162 -60 226 -117 169 -152 301 -449 355 -803 23 -145 31 -467 16 -614 -25
-233 -87 -460 -165 -600 -104 -186 -272 -358 -419 -431 -170 -84 -308 -82
-486 6 -205 101 -385 364 -510 745 -89 268 -125 488 -125 754 0 197 13 294 55
425 137 429 650 738 1053 635z m-5180 -578 c17 -51 108 -114 182 -126 l42 -7
-11 -34 c-5 -19 -13 -33 -16 -32 -3 1 -19 -7 -36 -18 -37 -25 -102 -25 -146 1
-42 25 -55 73 -44 168 6 65 18 83 29 48z m11431 -21 c74 -34 105 -85 105 -172
0 -156 -172 -237 -299 -142 -84 64 -93 196 -19 272 60 62 137 77 213 42z
m-10905 -85 c16 -13 52 -29 79 -36 28 -7 51 -15 51 -19 0 -5 -27 -34 -60 -65
-88 -84 -163 -109 -194 -64 -9 12 -16 30 -16 39 0 16 97 169 107 169 3 0 18
-11 33 -24z m1982 -196 c276 -129 644 -239 952 -285 146 -21 377 -21 480 0 43
9 80 14 83 11 10 -9 -62 -46 -137 -70 -304 -97 -689 -82 -1064 41 -145 48
-437 186 -470 222 -34 37 -61 162 -40 183 3 4 25 -7 50 -24 24 -16 90 -51 146
-78z m-2312 25 c0 -63 -41 -115 -90 -115 -34 0 -117 107 -98 126 3 3 25 0 49
-6 35 -9 52 -8 84 3 55 20 55 20 55 -8z m2236 -203 c364 -198 786 -296 1139
-264 171 16 316 46 394 83 35 16 65 28 66 27 1 -2 12 -75 26 -163 37 -246 27
-456 -32 -688 -104 -407 -344 -617 -703 -617 -335 0 -631 201 -804 546 -79
158 -149 423 -171 648 -17 173 -11 466 9 466 4 0 38 -17 76 -38z m4538 -274
c167 -169 289 -375 376 -636 94 -282 111 -522 49 -687 -53 -143 -221 -234
-431 -235 l-77 0 -26 44 c-14 24 -36 74 -49 112 -40 118 -75 183 -153 287
l-44 59 48 51 c93 98 153 205 179 314 49 208 -43 504 -191 615 -53 40 -149 78
-197 78 -52 0 -28 18 55 40 133 36 248 59 306 59 l54 1 101 -102z m109 65
c152 -82 303 -307 407 -608 85 -247 104 -336 104 -475 0 -110 -4 -135 -28
-205 -56 -163 -158 -285 -293 -352 -67 -33 -85 -38 -168 -41 -56 -3 -100 0
-111 7 -16 9 -15 10 14 11 97 1 261 59 333 119 45 37 94 129 114 212 62 266
-56 744 -265 1064 -60 91 -176 231 -229 277 l-36 30 53 -5 c29 -4 76 -19 105
-34z m-588 -108 c156 -44 242 -142 300 -341 30 -103 34 -231 9 -315 -61 -209
-259 -404 -545 -538 -226 -106 -339 -131 -604 -138 -201 -4 -337 6 -285 23
113 36 269 146 359 254 142 171 214 373 214 605 0 162 -27 271 -109 452 -3 6
3 14 13 16 10 3 146 4 303 3 231 -3 296 -7 345 -21z m-613 -245 c31 -114 29
-304 -5 -431 -105 -399 -455 -667 -829 -634 -77 7 -99 21 -37 23 270 8 608
340 728 717 31 94 65 258 76 360 3 33 9 71 12 85 5 24 6 24 20 -10 8 -19 24
-69 35 -110z m-1732 -172 c49 -164 147 -378 229 -503 22 -33 37 -63 33 -67
-26 -26 -434 -139 -449 -124 -3 3 8 21 26 41 42 49 96 158 121 247 28 98 36
244 18 328 -11 56 -14 150 -3 150 1 0 13 -33 25 -72z m-54 -252 c-17 -186 -99
-361 -209 -448 -37 -29 -40 -30 -24 -8 119 168 164 260 205 428 14 56 28 102
30 102 3 0 2 -33 -2 -74z m-7844 -206 c131 -37 178 -201 87 -304 -80 -92 -226
-81 -295 22 -65 97 -19 238 91 277 49 17 69 18 117 5z m8350 -291 c127 -100
269 -161 418 -180 85 -11 90 -13 84 -33 -41 -131 -98 -217 -183 -274 -102 -68
-210 -79 -319 -32 l-51 22 -5 61 c-3 34 -7 158 -10 275 -4 163 -2 211 7 205 7
-4 33 -24 59 -44z m579 -246 c-41 -161 -211 -340 -361 -379 -40 -10 -59 -10
-111 2 -60 14 -119 41 -119 55 0 4 21 0 48 -8 73 -23 180 -12 257 26 111 55
201 169 240 303 10 37 22 58 33 60 24 5 26 -6 13 -59z m6018 -77 c27 -14 51
-53 51 -82 0 -54 -63 -102 -118 -89 -80 17 -95 131 -23 170 33 18 55 18 90 1z
m-15124 -3580 c50 -50 40 -125 -21 -153 -62 -30 -134 15 -134 82 0 80 100 126
155 71z m10866 -55 c60 -61 23 -156 -61 -156 -53 0 -90 38 -90 91 0 47 45 94
90 94 22 0 41 -9 61 -29z m-9390 -341 c22 -12 49 -61 49 -89 0 -12 -13 -35
-29 -53 -41 -46 -92 -45 -133 1 -25 28 -29 39 -24 70 10 64 80 101 137 71z
m3431 -181 c11 -6 26 -26 34 -45 12 -29 12 -39 1 -66 -24 -57 -68 -76 -123
-53 -38 16 -54 41 -54 88 0 67 79 110 142 76z m9998 -534 c87 -45 56 -175 -42
-175 -117 0 -118 184 0 189 7 1 26 -6 42 -14z m-8425 -150 c131 -34 209 -116
245 -259 19 -74 20 -112 20 -533 0 -484 -5 -542 -52 -638 -25 -51 -93 -121
-138 -145 -98 -50 -310 -54 -411 -8 -105 48 -162 120 -195 249 -14 54 -18 132
-21 483 -6 534 6 627 91 739 37 48 121 102 180 116 66 15 216 12 281 -4z
m4300 -14 c66 -29 129 -92 156 -155 26 -62 48 -180 49 -263 l0 -63 -69 0 -68
0 -7 94 c-8 120 -29 188 -71 235 -41 45 -88 61 -181 61 -84 0 -138 -23 -181
-75 -54 -66 -56 -81 -60 -580 -4 -389 -2 -472 11 -535 28 -136 91 -192 223
-198 120 -7 191 33 232 127 24 57 41 191 41 334 l0 97 -120 0 -120 0 0 55 0
55 185 0 185 0 0 -385 0 -385 -44 0 c-48 0 -56 9 -56 65 0 18 -3 47 -6 64 l-7
32 -28 -49 c-60 -105 -128 -136 -286 -131 -93 4 -116 8 -165 32 -96 47 -153
133 -183 274 -21 98 -21 927 0 1025 27 131 79 209 167 254 72 37 112 43 238
40 93 -2 124 -7 165 -25z m-7055 -41 l0 -60 -210 0 -210 0 0 -300 0 -300 170
0 170 0 0 -55 0 -55 -170 0 -170 0 0 -330 0 -330 215 0 215 0 0 -55 0 -55
-290 0 -290 0 -2 796 c-2 438 -1 798 1 800 2 2 132 4 288 4 l283 0 0 -60z
m746 36 c159 -50 233 -191 221 -425 -6 -121 -31 -202 -80 -257 -31 -36 -94
-74 -122 -74 -11 0 -15 -6 -11 -17 33 -105 236 -788 236 -795 0 -5 -32 -8 -72
-6 l-72 3 -115 388 -115 387 -128 0 -128 0 0 -390 0 -391 -72 3 -73 3 -2 789
c-2 433 0 793 4 798 10 18 467 3 529 -16z m949 13 c185 -29 273 -141 283 -362
10 -216 -43 -341 -169 -396 l-46 -21 118 -392 c65 -216 119 -399 119 -405 0
-9 -20 -13 -69 -13 l-69 0 -16 48 c-14 44 -144 478 -196 655 l-23 77 -123 0
-124 0 0 -390 0 -390 -80 0 -80 0 0 793 c0 437 3 797 7 801 10 10 396 6 468
-5z m2023 1 c131 -17 207 -59 257 -144 70 -119 73 -374 6 -504 -26 -50 -66
-87 -123 -112 -27 -12 -45 -26 -43 -33 15 -42 235 -782 235 -789 0 -5 -32 -8
-72 -6 l-72 3 -36 120 c-20 66 -72 240 -115 387 l-80 268 -127 0 -128 0 0
-390 0 -390 -75 0 -75 0 0 793 c0 437 3 797 7 800 10 11 350 8 441 -3z m1497
-10 c100 -29 178 -113 211 -225 28 -93 26 -269 -4 -364 -21 -65 -32 -83 -86
-137 -83 -83 -121 -95 -333 -101 l-163 -6 0 -373 0 -374 -75 0 -75 0 0 801 0
801 243 -5 c140 -3 259 -10 282 -17z m763 -27 c6 -27 58 -273 116 -548 59
-275 130 -612 160 -750 l53 -250 -70 -3 c-38 -2 -71 -1 -73 1 -3 2 -20 87 -39
188 -19 101 -37 194 -40 207 -5 22 -7 22 -195 22 -188 0 -190 0 -195 -22 -2
-13 -16 -84 -30 -158 -14 -74 -30 -159 -36 -187 l-10 -53 -73 0 -73 0 58 273
c31 149 105 499 164 777 58 278 109 515 112 528 5 20 11 22 83 22 l78 0 10
-47z m2122 -13 l0 -60 -210 0 -210 0 0 -300 0 -300 170 0 170 0 0 -55 0 -55
-170 0 -170 0 0 -330 0 -330 211 -2 212 -3 0 -50 0 -50 -292 -3 -291 -2 0 800
0 800 290 0 290 0 0 -60z m-10632 -585 c32 -38 30 -89 -7 -126 -70 -70 -182 1
-151 96 22 67 110 84 158 30z m12632 -985 c62 -32 94 -81 98 -154 4 -72 -15
-114 -71 -160 -28 -22 -50 -30 -91 -34 -71 -6 -117 11 -160 58 -80 89 -54 234
52 290 49 25 122 26 172 0z m-11442 -155 c49 -21 81 -52 103 -100 23 -49 24
-94 4 -143 -33 -77 -91 -115 -177 -115 -199 0 -256 271 -73 354 49 23 94 24
143 4z m3885 -666 c37 -40 36 -82 -2 -120 -22 -21 -39 -29 -66 -29 -44 0 -95
45 -95 84 0 40 22 78 55 92 40 18 74 10 108 -27z m2028 -518 c83 -83 -36 -209
-125 -132 -29 25 -38 59 -26 97 23 69 99 86 151 35z m-2943 -657 c49 -56 6
-154 -68 -154 -44 0 -90 47 -90 92 0 88 100 127 158 62z"/>
<path d="M8269 16495 c-44 -14 -109 -71 -109 -96 0 -26 31 -18 60 15 35 40 94
61 141 51 22 -5 31 -2 35 10 4 9 5 18 2 20 -12 13 -89 13 -129 0z"/>
<path d="M8327 16303 c-14 -13 -6 -61 14 -87 24 -31 65 -35 74 -7 15 48 -57
126 -88 94z"/>
<path d="M7848 16236 c-73 -20 -148 -88 -148 -136 0 -18 38 -11 45 9 10 32 73
80 120 92 33 8 45 16 45 30 0 22 0 22 -62 5z"/>
<path d="M8201 16216 c-10 -11 7 -37 84 -133 l96 -118 -78 -38 c-53 -25 -78
-43 -78 -55 0 -10 6 -16 15 -14 13 3 188 81 199 89 3 2 -219 283 -224 283 -2
0 -8 -6 -14 -14z"/>
<path d="M7922 16078 c-7 -7 -12 -22 -12 -34 0 -29 46 -84 70 -84 41 0 35 77
-7 110 -30 23 -35 24 -51 8z"/>
<path d="M8430 15773 c-44 -16 -55 -91 -18 -117 73 -51 151 48 82 103 -27 21
-37 24 -64 14z"/>
<path d="M8790 15535 c-39 -100 -82 -155 -153 -189 -76 -37 -144 -48 -230 -35
-110 15 -111 15 -115 -3 -8 -40 218 -53 313 -17 122 45 185 116 234 261 17 49
17 57 4 62 -8 3 -16 6 -18 6 -2 0 -18 -38 -35 -85z"/>
<path d="M9044 14956 c-105 -49 -160 -151 -152 -285 10 -181 155 -324 327
-324 162 0 270 115 272 288 1 70 -3 85 -35 151 -43 86 -104 144 -182 174 -76
28 -164 27 -230 -4z m235 -40 c147 -77 215 -262 146 -401 -95 -196 -368 -163
-469 55 -31 66 -35 168 -10 228 20 49 69 100 119 124 50 23 162 20 214 -6z"/>
<path d="M8479 14421 c-80 -26 -123 -91 -123 -186 0 -127 96 -225 219 -225 25
0 58 6 73 14 36 19 78 65 91 99 26 68 1 178 -52 235 -48 52 -149 82 -208 63z"/>
<path d="M9025 14183 c-74 -39 -109 -99 -108 -188 0 -70 18 -117 63 -169 135
-153 369 -75 370 124 0 98 -65 198 -152 234 -48 20 -134 20 -173 -1z m152 -34
c68 -25 132 -119 133 -191 1 -152 -156 -224 -274 -126 -91 75 -106 221 -29
290 40 36 114 48 170 27z"/>
<path d="M4732 12638 c-83 -233 -235 -657 -337 -943 -103 -286 -218 -608 -256
-715 -38 -107 -174 -487 -303 -845 -128 -357 -231 -653 -229 -657 2 -5 292 -8
644 -8 l639 0 0 1795 c0 987 -2 1795 -4 1795 -1 0 -71 -190 -154 -422z"/>
<path d="M15088 12983 c-14 -43 -155 -438 -313 -878 -158 -440 -320 -892 -360
-1005 -117 -330 -503 -1406 -541 -1509 -18 -52 -34 -100 -34 -108 0 -11 110
-13 640 -13 352 0 640 3 640 8 0 4 1 811 3 1795 1 983 0 1787 -3 1787 -3 0
-17 -35 -32 -77z"/>
<path d="M8585 5738 c-49 -17 -92 -55 -113 -100 -37 -77 -44 -188 -40 -640 5
-484 7 -500 82 -574 47 -48 93 -64 181 -64 119 0 183 38 226 132 l24 53 0 505
c0 395 -3 515 -14 550 -17 57 -82 124 -136 139 -49 14 -170 13 -210 -1z"/>
<path d="M6445 5739 c-3 -8 -4 -142 -3 -299 l3 -285 108 -3 c191 -5 274 25
317 112 45 94 45 287 1 375 -42 82 -90 100 -283 108 -113 5 -139 3 -143 -8z"/>
<path d="M7460 5450 l0 -303 143 5 c127 4 149 7 193 29 87 43 118 115 118 274
0 159 -34 231 -129 271 -28 11 -82 18 -182 22 l-143 5 0 -303z"/>
<path d="M9505 5739 c-3 -8 -4 -142 -3 -299 l3 -285 145 0 c131 1 150 3 193
24 84 41 120 122 120 271 0 151 -41 241 -125 275 -59 24 -325 35 -333 14z"/>
<path d="M10928 5745 c-5 -5 -8 -145 -8 -312 l0 -303 131 0 c71 0 151 5 176
12 61 15 115 69 134 134 18 63 18 272 0 333 -16 56 -65 105 -116 120 -49 14
-307 27 -317 16z"/>
<path d="M11966 5630 c-3 -8 -37 -179 -76 -380 -39 -201 -74 -384 -79 -407 -5
-23 -6 -45 -3 -48 9 -8 320 -6 326 3 2 4 -33 197 -79 427 -45 231 -85 413 -89
405z"/>
</g>
</svg>
